%
M48
M72
T01C0.02362
T02C0.03200
T03C0.04000
T04C0.04331
%
T01
X52150Y42333
X69650Y61333
X75150Y68333
X59150Y92333
X53150Y92833
X47150Y92833
X35150Y97833
X51150Y107333
X58150Y109833
X69650Y99333
X53150Y123833
X47150Y128833
X33150Y82333
X32650Y72333
X33150Y65333
X106150Y131333
T02
X139150Y135333
X149150Y135333
X146150Y116333
X146150Y76333
X143150Y58333
X153150Y58333
X80150Y42333
X40150Y42333
X35150Y106333
X35150Y146333
T03
X19150Y18333
X29150Y18333
X39150Y18333
X49150Y18333
X59150Y18333
X69150Y18333
X79150Y18333
X89150Y18333
X99150Y18333
X109150Y18333
X109150Y28333
X99150Y28333
X89150Y28333
X79150Y28333
X69150Y28333
X59150Y28333
X49150Y28333
X39150Y28333
X29150Y28333
X19150Y28333
X18150Y48333
X18150Y58333
X18150Y68333
X18150Y78333
X18150Y88333
X18150Y98333
X18150Y108333
X18150Y118333
X18150Y128333
X18150Y138333
X88150Y128333
X88150Y118333
X88150Y108333
X88150Y98333
X88150Y88333
X88150Y78333
X88150Y68333
X88150Y58333
X128150Y78333
X128150Y88333
X128150Y98333
X128150Y108333
X160150Y106333
X160150Y96333
T04
X153150Y23333
X143150Y23333
X133150Y23333
M30
