%
M48
M72
T01C0.02362
T02C0.03200
T03C0.04000
T04C0.04331
%
T01
X12650Y37333
X32150Y63333
X32150Y69333
X32150Y75333
X33150Y82333
X47150Y92833
X53150Y92833
X59150Y92333
X69650Y99333
X58150Y109833
X51150Y107333
X35150Y97833
X53150Y123833
X47150Y128833
X10650Y144333
X76650Y78833
X74150Y68333
X69650Y61333
X119150Y118833
X110650Y123333
X106150Y131333
T02
X146150Y116333
X151150Y135333
X161150Y135333
X146150Y76333
X150650Y60333
X160650Y60333
X80150Y42333
X40150Y42333
X35150Y106333
X35150Y146333
T03
X19150Y18333
X29150Y18333
X39150Y18333
X49150Y18333
X59150Y18333
X69150Y18333
X79150Y18333
X89150Y18333
X99150Y18333
X109150Y18333
X109150Y28333
X99150Y28333
X89150Y28333
X79150Y28333
X69150Y28333
X59150Y28333
X49150Y28333
X39150Y28333
X29150Y28333
X19150Y28333
X18150Y48333
X18150Y58333
X18150Y68333
X18150Y78333
X18150Y88333
X18150Y98333
X18150Y108333
X18150Y118333
X18150Y128333
X18150Y138333
X86150Y128333
X86150Y118333
X86150Y108333
X86150Y98333
X86150Y88333
X86150Y78333
X86150Y68333
X86150Y58333
X129150Y82833
X129150Y92833
X129150Y102833
X129150Y112833
X160650Y105833
X160650Y95833
X160650Y85833
T04
X153150Y23333
X143150Y23333
X133150Y23333
M30
